<mxfile host="app.diagrams.net" modified="2024-04-17T03:22:56.238Z" agent="Mozilla/5.0 (Macintosh; Intel Mac OS X 10_15_7) AppleWebKit/537.36 (KHTML, like Gecko) Chrome/123.0.0.0 Safari/537.36" version="24.2.5" etag="-n30W-nDk-fIioi14qy0" type="github">
  <diagram name="第 1 页" id="Ue7i_zr2Lh6vT24Iu_0P">
    <mxGraphModel>
      <root>
        <mxCell id="0" />
        <mxCell id="1" parent="0" />
      </root>
    </mxGraphModel>
  </diagram>
</mxfile>
